<?xml version="1.0" encoding="utf-8"?>
<!-- Generator: Adobe Illustrator 19.0.0, SVG Export Plug-In . SVG Version: 6.00 Build 0)  -->
<svg version="1.1" id="Layer_1" xmlns="http://www.w3.org/2000/svg" xmlns:xlink="http://www.w3.org/1999/xlink" x="0px" y="0px"
	 viewBox="-360 431 250.3 40" style="enable-background:new -360 431 250.3 40;" xml:space="preserve">
<style type="text/css">
	.st0{fill:#FFFFFF;}
	.st1{fill:#00EA3D;}
</style>
<title>Group 28</title>
<desc>Created with Sketch.</desc>
<g id="VSL">
	<g id="Group-28" transform="translate(-1011.000000, -62.000000)">
		<g transform="translate(1011.000000, 62.000000)">
			<path id="Fill-22" class="st0" d="M-344.1,457.1c-1-0.6-5.2-3.2-5.2-3.2s-4.2-2.6-5.2-3.2c-0.1-0.1-0.2,0-0.2,0.1
				c0,0.2,0,0.6,0,0.8c0,0.1,0,0.2,0.1,0.3c0.2,0.4,0.9,1.4,1.2,1.9c0.1,0.2,0.2,0.4,0.1,0.7l-0.8,3.3c0,0.1,0,0.3,0.1,0.4
				c0.4,0.3,1,0.7,1.6,1.1c0.7,0.4,1.2,0.7,1.7,0.9c0.1,0.1,0.3,0,0.4-0.1l2.5-2.2c0.2-0.2,0.4-0.2,0.6-0.2c0.6,0.1,1.8,0.2,2.2,0.2
				c0.1,0,0.2,0,0.3-0.1c0.2-0.1,0.5-0.3,0.7-0.4C-344,457.3-344,457.2-344.1,457.1"/>
			<path id="Fill-24" class="st0" d="M-351.2,461.3c0-0.3-0.2-0.5-0.4-0.6c-0.7-0.3-1.2-0.7-1.3-0.7c-0.1-0.1-0.7-0.4-1.3-0.9
				c-0.2-0.2-0.5-0.2-0.7-0.1l-0.1,0c-1,0.3-1.8,1.1-2.1,2.2c-0.7,2.5-2,7.2-2.6,9.3c-0.1,0.3,0.3,0.5,0.5,0.3
				c1.6-1.5,5.2-4.8,7.1-6.6c0.8-0.7,1.1-1.8,1-2.8L-351.2,461.3z"/>
			<path id="Fill-26" class="st0" d="M-326.6,432.8c0.3-0.4,0.1-0.7,0-0.8c0,0,0,0,0,0c-0.1-0.1-0.3-0.2-0.5-0.2l-4.4-0.7
				c-0.4-0.1-0.8,0.1-1.1,0.4l-2.4,3.3c-0.4,0.5-0.2,1.2,0.2,1.5c0,0,0,0.1,0,0.1c0,0-0.1,0-0.1,0l-1.2-0.2l-1.7-0.3
				c-0.5-0.1-0.9,0.1-1.2,0.5l-7.1,9.6c-0.1,0.1-0.3,0.2-0.4,0.1l-6.8-4.1c-0.4-0.3-1-0.1-1.3,0.3c-0.3,0.4-0.1,1,0.4,1.3l0.2,0.1
				c0.1,0.1,0.1,0.2,0.1,0.3l-0.2,1.4c0,0.1-0.2,0.2-0.3,0.1c0,0-1-0.6-1-0.6c-0.8-0.5-1.9-0.2-2.3,0.6c-0.4,0.7-0.3,1.6,0.3,2.2
				c0,0,0.2,0.2,0.2,0.2c0,0,0,0,0,0c0,0,0,0,0,0l5.1,3.1c2.7,1.7,4.8,0.3,5.5-0.2c0.6-0.4,1.2-0.9,2.3-0.2c0.4,0.2,0.9,0.2,1.3,0
				l1.3-0.8c0.4-0.2,0.8-0.2,1.2,0l3.9,2.3c0.2,0.1,0.3,0.1,0.5-0.1l9.4-12.8c0.8-1,0.2-1.5-0.3-1.6c0,0-0.1,0-0.1,0l-2.3-0.3
				c0,0-0.1,0-0.1,0c-0.1-0.1-0.2-0.2-0.1-0.4C-328.9,435.9-326.6,432.8-326.6,432.8"/>
		</g>
	</g>
</g>
<g>
	<path class="st0" d="M-304.2,459.7l-3.1-6h-1.8v6h-4.7v-17.9h6.8c3.9,0,7.2,1.3,7.2,5.8c0,2.6-1.2,4.2-2.9,5.2l3.9,6.9H-304.2z
		 M-309.1,449.9h1.7c1.9,0,2.9-0.8,2.9-2.4s-1-2-2.9-2h-1.7V449.9z"/>
	<path class="st0" d="M-291.1,445.6c3.5,0,6.8,2.6,6.8,7.2c0,4.6-3.3,7.2-6.8,7.2s-6.8-2.6-6.8-7.2
		C-297.9,448.2-294.6,445.6-291.1,445.6z M-291.1,456.2c1.4,0,2-1.3,2-3.4c0-2.1-0.6-3.4-2-3.4c-1.4,0-2,1.3-2,3.4
		C-293,454.9-292.5,456.2-291.1,456.2z"/>
	<path class="st0" d="M-275.1,445.6c1.7,0,3.1,0.6,4,1.5l-2.2,2.9c-0.6-0.5-1.1-0.7-1.6-0.7c-1.8,0-2.8,1.3-2.8,3.4
		c0,2.1,1.2,3.4,2.6,3.4c0.9,0,1.6-0.4,2.2-0.9l1.9,3c-1.4,1.2-3.2,1.7-4.6,1.7c-3.9,0-6.9-2.6-6.9-7.2
		C-282.5,448.2-279,445.6-275.1,445.6z"/>
	<path class="st0" d="M-268.7,440.5h4.6v10.2h0.1l3.8-4.8h5.1l-4.9,5.7l5.2,8.1h-5.1l-2.8-4.9l-1.4,1.6v3.3h-4.6V440.5z"/>
	<path class="st0" d="M-248.1,445.6c4.1,0,6,3,6,6.7c0,0.8-0.1,1.5-0.2,1.9h-7.9c0.4,1.8,1.7,2.3,3.2,2.3c0.9,0,1.8-0.3,2.8-0.8
		l1.5,2.8c-1.5,1-3.5,1.6-5,1.6c-4,0-7.1-2.6-7.1-7.2C-254.7,448.3-251.4,445.6-248.1,445.6z M-246.1,451.3c0-1.2-0.4-2.1-1.9-2.1
		c-1,0-1.9,0.6-2.2,2.1H-246.1z"/>
	<path class="st0" d="M-239.4,449.6h-1.8v-3.5l2.1-0.2l0.6-3.6h3.9v3.6h3.1v3.7h-3.1v4.7c0,1.5,0.8,2,1.7,2c0.4,0,0.9-0.1,1.2-0.2
		l0.7,3.4c-0.7,0.2-1.7,0.5-3.3,0.5c-3.6,0-5.1-2.3-5.1-5.6V449.6z"/>
	<path class="st0" d="M-228,455.2c1.3,0.9,2.4,1.4,3.4,1.4c1,0,1.4-0.3,1.4-0.8c0-0.7-1.3-1-2.6-1.6c-1.6-0.6-3.5-1.8-3.5-4.1
		c0-2.7,2.2-4.5,5.5-4.5c2.3,0,3.9,0.9,5.1,1.8l-2.1,2.8c-1-0.7-2-1.2-2.8-1.2c-0.8,0-1.2,0.2-1.2,0.8c0,0.7,1.2,1,2.6,1.5
		c1.7,0.6,3.5,1.7,3.5,4.1c0,2.6-2,4.6-5.9,4.6c-1.8,0-3.9-0.8-5.3-1.9L-228,455.2z"/>
	<path class="st0" d="M-210.6,445.6c4.1,0,6,3,6,6.7c0,0.8-0.1,1.5-0.2,1.9h-7.9c0.4,1.8,1.7,2.3,3.2,2.3c0.9,0,1.8-0.3,2.8-0.8
		l1.5,2.8c-1.5,1-3.5,1.6-5,1.6c-4,0-7.1-2.6-7.1-7.2C-217.2,448.3-214,445.6-210.6,445.6z M-208.6,451.3c0-1.2-0.4-2.1-1.9-2.1
		c-1,0-1.9,0.6-2.2,2.1H-208.6z"/>
	<path class="st0" d="M-195.2,450.8c-0.1-1-0.7-1.4-1.9-1.4c-1,0-2,0.4-3.5,1.2l-1.7-3.1c1.9-1.2,3.9-1.8,6.1-1.8
		c3.6,0,5.7,1.9,5.7,6.5v7.7h-3.9l-0.3-1.3h-0.1c-1.1,1-2.3,1.7-3.8,1.7c-2.6,0-4.1-2-4.1-4.2C-202.7,452.9-200.5,451.3-195.2,450.8
		z M-196.9,456.4c0.8,0,1.2-0.4,1.7-0.9v-1.9c-2.3,0.3-3,1-3,1.8C-198.2,456-197.8,456.4-196.9,456.4z"/>
	<path class="st0" d="M-186.7,449.6h-1.8v-3.5l2.1-0.2l0.6-3.6h3.9v3.6h3.1v3.7h-3.1v4.7c0,1.5,0.8,2,1.7,2c0.4,0,0.9-0.1,1.2-0.2
		l0.7,3.4c-0.7,0.2-1.7,0.5-3.3,0.5c-3.6,0-5.1-2.3-5.1-5.6V449.6z"/>
	<path class="st1" d="M-173.5,454.3c1.6,0,2.8,1.3,2.8,2.9c0,1.6-1.2,2.9-2.8,2.9c-1.6,0-2.8-1.3-2.8-2.9
		C-176.3,455.6-175.1,454.3-173.5,454.3z"/>
	<path class="st1" d="M-167.1,441.8h5.3c5.5,0,9.2,2.5,9.2,8.9s-3.8,9-8.9,9h-5.6V441.8z M-162.1,455.9c2.6,0,4.6-1,4.6-5.2
		c0-4.2-2-5.1-4.6-5.1h-0.3v10.3H-162.1z"/>
	<path class="st1" d="M-143.9,445.6c4.1,0,6,3,6,6.7c0,0.8-0.1,1.5-0.2,1.9h-7.9c0.4,1.8,1.7,2.3,3.2,2.3c0.9,0,1.8-0.3,2.8-0.8
		l1.5,2.8c-1.5,1-3.5,1.6-5,1.6c-4,0-7.1-2.6-7.1-7.2C-150.5,448.3-147.3,445.6-143.9,445.6z M-141.9,451.3c0-1.2-0.4-2.1-1.9-2.1
		c-1,0-1.9,0.6-2.2,2.1H-141.9z"/>
	<path class="st1" d="M-136.8,445.9h4.7l1.5,6c0.3,1.4,0.7,2.8,1,4.3h0.1c0.3-1.5,0.7-2.9,1-4.3l1.5-6h4.5l-4.4,13.8h-5.5
		L-136.8,445.9z"/>
	<path class="st1" d="M-119.6,455.2c1.3,0.9,2.4,1.4,3.4,1.4c1,0,1.4-0.3,1.4-0.8c0-0.7-1.3-1-2.6-1.6c-1.6-0.6-3.5-1.8-3.5-4.1
		c0-2.7,2.2-4.5,5.5-4.5c2.3,0,3.9,0.9,5.1,1.8l-2.1,2.8c-1-0.7-2-1.2-2.8-1.2c-0.8,0-1.2,0.2-1.2,0.8c0,0.7,1.2,1,2.6,1.5
		c1.7,0.6,3.5,1.7,3.5,4.1c0,2.6-2,4.6-5.9,4.6c-1.8,0-3.9-0.8-5.3-1.9L-119.6,455.2z"/>
</g>
</svg>
